<?xml version="1.0" encoding="utf-8"?>
<!-- Generator: Adobe Illustrator 24.0.2, SVG Export Plug-In . SVG Version: 6.00 Build 0)  -->
<svg version="1.1" id="Capa_1" xmlns="http://www.w3.org/2000/svg" xmlns:xlink="http://www.w3.org/1999/xlink" x="0px" y="0px"
	 viewBox="0 0 1080 1080" style="enable-background:new 0 0 1080 1080;" xml:space="preserve">
<style type="text/css">
	.st0{fill:#F25C06;}
	.st1{fill:#071526;}
	.st2{fill:#562811;}
	.st3{fill:#FFFFFF;}
	.st4{fill:#4F0E0B;}
	.st5{fill:#A61204;}
</style>
<g>
	<path class="st0" d="M723.59,462.09l30.42,160.1c0,0,99.26-38.42,112.07-57.64c12.81-19.21,48.03-43.23,59.24-68.84
		c11.21-25.62,25.62-92.86,22.41-110.47c-3.2-17.61-11.21-41.63-11.21-41.63h-14.41l-35.22,30.42c0,0-91.2,64.17-99.23,68.11
		C779.62,446.08,723.59,462.09,723.59,462.09z"/>
	<path class="st0" d="M98.38,496.51c0,0-27.22,140.89-19.21,169.71s4.8,94.46,28.82,118.48l-8.01,4.8c0,0-54.44-16.01-67.24-97.66
		c0,0,12.74-86.07,26.39-118.28L98.38,496.51z"/>
	<g>
		<path class="st1" d="M275.08,481.2c1.36-5.6,5.25-7.88,10.39-8.41c4.88-0.5,9.69-1.3,14.28-2.99c37.63-13.82,63.65-39,75.96-77.62
			c4.63-14.52,5.8-29.33,4.58-44.44c-0.93-11.46-3.05-22.64-7.06-33.42c-11.6-31.21-32.52-53.86-62.69-67.94
			c-14.3-6.68-29.28-11.26-44.73-14.37c-20.16-4.06-40.55-5.55-61.07-5.09c-12.38,0.28-24.74,0.83-37.12,1.31
			c-9.04,0.35-18.09,0.66-27.13,0.14c-14.09-0.81-27.89-3.11-40.92-8.9c-13.33-5.92-24.93-14.31-35.28-24.52
			c-6.2-6.12-11.65-12.89-16.82-19.89c-0.56-0.76-1.05-1.59-1.51-2.42c-0.16-0.29-0.12-0.68-0.17-1.02
			c1.13-0.57,2.11-0.02,3.13,0.22c5.67,1.31,11.33,2.74,17.04,3.87c11.37,2.24,22.87,2.97,34.45,2.91
			c16.25-0.09,32.28-2.2,48.16-5.46c15.61-3.21,30.96-7.52,46.42-11.39c11.65-2.92,23.28-5.93,34.99-8.59
			c14.21-3.23,28.66-4.78,43.22-4.53c38.95,0.65,73.33,13.61,103.11,38.75c5.19,4.38,10.07,9.09,14.82,13.94
			c5.65,5.77,10.07,12.36,13.13,19.82c2.89,7.04,5.6,14.16,8.41,21.23c0.52,1.3,0.79,2.75,1.79,3.77c1.27,0.04,1.7-0.82,2.18-1.65
			c1.37-2.37,2.73-4.75,4.14-7.09c9.36-15.56,19.99-30.15,32.73-43.15c9.37-9.56,19.65-18.01,31.11-24.97
			c17.77-10.78,37.01-17.18,57.67-19.52c12.48-1.41,24.92-1.36,37.41-0.11c18.19,1.83,35.88,5.93,53.31,11.28
			c15.12,4.64,30.35,8.91,45.85,12.11c10.73,2.21,21.52,3.96,32.43,4.97c10.09,0.94,20.19,1.41,30.31,0.93
			c13.82-0.65,27.47-2.57,40.95-5.69c0.81-0.19,1.63-0.33,2.45-0.46c0.22-0.03,0.45,0.09,0.93,0.2c-0.12,0.51-0.2,1.04-0.39,1.53
			c-0.12,0.32-0.39,0.6-0.6,0.88c-9.04,12.38-19.36,23.51-31.87,32.5c-12.86,9.25-27.06,15.37-42.66,18.14
			c-7.51,1.34-15.11,1.93-22.75,1.88c-25.24-0.16-50.48-0.33-75.71-0.57c-7.14-0.07-14.28-0.2-21.42,0.24
			c-13.37,0.82-26.44,3.26-39.19,7.32c-16.99,5.4-32.99,12.96-47.81,22.88c-16.53,11.06-29.7,25.22-38.79,43.02
			c-6.23,12.2-10.17,25.12-11.98,38.68c-2.33,17.52-0.35,34.65,4.74,51.5c4.46,14.73,11.06,28.35,20.63,40.47
			c13.89,17.58,31.63,29.7,52.74,37.01c5.51,1.91,11.12,3.48,16.88,4.45c1.87,0.32,3.74,0.78,5.52,1.41
			c2.42,0.86,4.41,2.32,5.3,4.95c-0.19,0.32-0.3,0.71-0.55,0.9c-0.66,0.5-1.35,0.99-2.08,1.37c-8.97,4.58-18.41,7.68-28.41,9.07
			c-5.58,0.77-11.13,0.71-16.73,0.19c-7.77-0.71-15.46-0.01-22.96,2.25c-10.32,3.1-18.84,8.96-25.94,16.98
			c-5.62,6.35-10.5,13.24-14.83,20.52c-4.56,7.67-9.03,15.4-13.55,23.1c-2.41,4.11-4.87,8.19-7.93,11.86
			c-1.14,1.36-2.34,2.72-3.71,3.84c-3.42,2.81-6.57,2.78-9.97-0.11c-1.44-1.22-2.79-2.62-3.92-4.14c-2.06-2.76-4.05-5.6-5.84-8.54
			c-5.09-8.32-10.06-16.72-15.1-25.08c-3.51-5.81-7.19-11.51-11.53-16.75c-3.58-4.32-7.44-8.36-11.84-11.86
			c-10.86-8.65-23.3-12.64-37.11-12.52c-2.5,0.02-5.02,0.03-7.48,0.4c-5.89,0.89-11.71,0.32-17.35-1.18
			c-8.73-2.32-17.33-5.13-25.98-7.75C275.61,481.78,275.47,481.54,275.08,481.2z M425.17,529.71c0.91-1.43,1.64-2.5,2.28-3.62
			c6.17-10.73,12.34-21.46,18.48-32.2c0.71-1.24,1.38-2.5,1.92-3.82c1.3-3.19,1.09-6.34-0.75-9.24c-3.77-5.93-9.19-9.18-16.24-9.5
			c-1.51-0.07-3.08,0.24-4.57,0.58c-3.68,0.84-5.64,3.35-6.25,6.96c-0.22,1.28-0.26,2.61-0.26,3.91c-0.02,13.45-0.02,26.91,0,40.36
			c0,1.4,0.19,2.81,0.29,4.25C421.77,528.16,423.26,528.84,425.17,529.71z"/>
		<path class="st1" d="M621.43,314.64c1.47,3.73,2.04,6.99,2.65,10.22c1.7,8.92,2.39,17.92,1.69,27
			c-1.36,17.68-8.98,31.85-23.63,42.03c-8.01,5.56-16.74,9.49-26.43,11.08c-9.81,1.6-19.45,0.86-28.9-2.17
			c-12.33-3.96-22.66-10.9-30.9-20.9c-7.73-9.38-11.86-20.23-12.98-32.28c-2.02-21.71,5.87-39.59,21.08-54.64
			c2.3-2.28,5-4.06,7.9-5.46c5.89-2.83,11.84-5.56,17.77-8.31c1.85-0.86,3.79-1.35,5.87-1.31c3.78,0.09,5.75,1.91,5.98,5.61
			c0.12,1.93-0.18,3.78-0.94,5.58c-1.07,2.52-2.13,5.04-3.1,7.6c-2.18,5.72-3.54,11.59-3.33,17.77c0.24,7.02,2.84,12.98,7.97,17.74
			c5.89,5.46,12.76,9.12,20.73,10.48c5.71,0.97,11.14,0.05,16.17-2.89c4.16-2.43,7.8-5.49,10.56-9.46c3.4-4.88,6.67-9.86,9.98-14.79
			C620.09,316.75,620.58,315.95,621.43,314.64z"/>
		<path class="st1" d="M263.37,287.58c-0.63,1.45-1.22,2.73-1.75,4.04c-1.64,4.08-3.4,8.12-4.82,12.27
			c-1.39,4.07-2.01,8.31-1.93,12.64c0.13,6.62,2.39,12.39,7.1,17.01c6.94,6.81,15.3,10.83,25.01,11.77
			c3.98,0.39,7.81-0.55,11.41-2.28c5.74-2.76,10.26-6.9,13.58-12.29c2.55-4.15,4.86-8.46,7.28-12.69c0.58-1.01,1.19-1.99,1.79-3
			c1.3,0.67,1.4,1.85,1.65,2.82c1.04,3.9,2.05,7.82,2.89,11.78c1.47,6.9,1.88,13.9,1.56,20.95c-0.54,12.19-4.57,22.96-12.67,32.22
			c-11.03,12.63-24.72,20.34-41.33,22.57c-9.57,1.29-18.99,0.37-28.07-3.2c-9.88-3.88-18.78-9.29-25.94-17.22
			c-10.81-11.97-16.22-26.17-16.63-42.24c-0.19-7.34,1.34-14.44,4.15-21.22c3.63-8.76,8.58-16.71,14.85-23.83
			c3.66-4.15,7.96-7.49,12.98-9.87c6.59-3.13,13.52-3.5,20.6-2.6c2,0.25,3.97,0.76,5.92,1.25
			C261.78,286.66,262.47,287.14,263.37,287.58z"/>
		<path class="st1" d="M682.29,405.29c-0.07-1.88,0.56-3.32,1-4.78c2.38-7.86,4.38-15.82,5.73-23.93
			c3.98-24.06,2.02-47.43-8.26-69.8c-5.56-12.11-13.07-22.93-22.02-32.76c-3.2-3.52-6.65-6.81-9.99-10.2
			c-1.07-1.09-2.17-2.15-3.45-3.41c1.28-1.03,2.55-1.06,3.8-1.14c2.97-0.19,5.94-0.41,8.91-0.58c9.62-0.56,19.25-1.11,28.87-1.65
			c5.23-0.3,10.46-0.59,15.68-0.87c1.07-0.06,2.14-0.1,3.21-0.07c4.47,0.13,8.03,2.07,10.6,5.68c1.38,1.93,2.57,4.01,3.67,6.11
			c3.8,7.25,5.99,15.04,7.03,23.1c3.71,28.91-0.6,56.69-12.28,83.33c-4.29,9.78-10.02,18.65-17.82,26.06
			c-0.6,0.57-1.2,1.16-1.82,1.71C691.5,405.36,687.31,406.4,682.29,405.29z"/>
		<path class="st1" d="M190.17,257.42c-2.06,2.07-3.64,3.67-5.24,5.26c-10.28,10.16-19.43,21.23-26.82,33.69
			c-8.1,13.66-13.47,28.32-15.83,44.03c-1.69,11.23-1.75,22.5-0.49,33.8c1.52,13.66,4.86,26.88,9.28,39.86
			c0.37,1.09,0.65,2.21,1.01,3.47c-1.55,0.02-2.07-1.03-2.75-1.74c-5.94-6.34-11.55-12.97-16.68-19.99
			c-8.68-11.88-15.82-24.58-20.8-38.46c-5.58-15.56-7.77-31.61-6.69-48.07c0.86-13.13,3.65-25.89,8.32-38.2
			c0.88-2.32,2.07-4.55,3.34-6.68c3.39-5.68,8.56-8.51,15.08-8.6c3.31-0.05,6.65,0.35,9.93,0.82c5.43,0.77,10.86,1.31,16.35,1.15
			c8.8-0.27,17.6-0.51,26.4-0.74C186.22,256.96,187.86,256.86,190.17,257.42z"/>
	</g>
	<path class="st1" d="M128.1,800.65C77.28,732.57,79.14,646.41,93.42,568.5c9.3-50.74,22.13-101.01,33.7-151.35
		c1.43-6.24-11.29-7.51-12.74-1.22c-0.66,2.87-1.33,5.75-2,8.62c-0.86,0.55-1.57,1.34-1.98,2.44
		c-20.81,56.27-42.33,112.34-62.35,168.9c-17.23,48.66-31,106.68-3.18,154.36c12.7,21.76,33.33,39.01,58.13,44.75
		c2.36,0.55,4.5-0.1,6.05-1.29c1.53,2.36,3.09,4.69,4.72,6.99c22.42,31.65,54.34,55.78,92.24,70.77c1.45,0.57,2.91,1.11,4.37,1.65
		c1.56-2.21,4.2-3.79,7.91-3.79c0.86,0,1.64,0.09,2.37,0.24c0.26-0.29,0.55-0.57,0.87-0.82c0.01-0.02,0.02-0.04,0.03-0.06
		c0.25-0.51,0.61-0.96,1.08-1.35c0.23-0.24,0.47-0.46,0.71-0.68C185.54,854.01,151.9,832.55,128.1,800.65z M42.28,673.98
		c1.97-26.44,9.87-51.9,18.76-76.74c9.25-25.85,18.98-51.53,28.51-77.28c0.68-1.83,1.35-3.66,2.03-5.5
		c-3.18,14.34-6.23,28.69-9.04,43.09c-8.65,44.31-14.12,89.65-8.75,134.6c3.78,31.67,13.1,63.35,29.31,91.74
		C56.62,770.33,38.95,718.63,42.28,673.98z"/>
	<path class="st1" d="M947.92,349.86c-3.45-7.49-10.09-12.44-18.46-12.69c-10.39-0.31-19.12,6.79-26.54,13.17
		c-16.46,14.16-33.22,27.96-50.75,40.78c-38.08,27.84-79.96,51.41-125.93,62.94c-2.97-12.63-5.94-25.25-8.85-37.89
		c-1.45-6.3-14.17-5.02-12.74,1.22c3.13,13.61,6.35,27.21,9.56,40.81c-0.02,0.02-0.03,0.05-0.05,0.07c1.38,2.16,1.81,4.94,1.3,7.54
		c0.2,0.14,0.41,0.28,0.63,0.39c8.04,34.07,15.95,68.19,22.25,102.53c14.28,77.91,16.14,164.06-34.68,232.15
		c-25.38,34.01-61.92,56.17-102.79,68.44c0.04,0,0.07,0,0.1,0c5.11,0,8,2.96,8.78,6.45c0.94,0.15,1.79,0.41,2.54,0.77
		c4.53-1.49,9.03-3.08,13.46-4.83c37.9-14.99,69.82-39.12,92.24-70.77c22.93-32.36,35.44-70.47,39.99-108.55
		c2.75-23.05,2.64-46.21,0.73-69.28c0.91,0.13,1.86,0.1,2.82-0.16c79.51-22.11,152.54-75.73,181.1-155.42
		c6.91-19.29,11.23-39.62,12.18-60.1C955.67,389.31,955.67,366.68,947.92,349.86z M932.77,457.2
		c-12.03,37.15-34.3,70.07-63.43,95.98c-31.88,28.35-70.74,47.79-111.62,59.39c-1.95-18.36-4.94-36.65-8.47-54.76
		c-6.08-31.15-13.24-62.14-20.51-93.09c35.65-8.85,69.1-24.28,100.26-43.76c16.87-10.55,33.05-22.18,48.71-34.44
		c7.84-6.14,15.54-12.44,23.15-18.86c7.25-6.11,14.82-14.9,23.8-18.5c12.2-4.88,13.77,11.26,15.17,19.48
		c1.67,9.8,2.5,19.72,2.45,29.66C942.2,418.25,938.92,438.23,932.77,457.2z"/>
	<g>
		<g>
			<ellipse class="st0" cx="557.64" cy="897.98" rx="20.5" ry="28.91"/>
			<path class="st2" d="M557.64,931.39c-13.79,0-25-14.99-25-33.41c0-18.42,11.22-33.41,25-33.41s25,14.99,25,33.41
				C582.65,916.4,571.43,931.39,557.64,931.39z M557.64,873.57c-8.67,0-16,11.18-16,24.41s7.33,24.41,16,24.41s16-11.18,16-24.41
				S566.32,873.57,557.64,873.57z"/>
		</g>
		<g>
			<ellipse class="st0" cx="515.41" cy="896.53" rx="20.5" ry="28.91"/>
			<path class="st2" d="M515.41,929.93c-13.79,0-25-14.99-25-33.41c0-18.42,11.22-33.41,25-33.41s25,14.99,25,33.41
				C540.41,914.95,529.2,929.93,515.41,929.93z M515.41,872.12c-8.67,0-16,11.18-16,24.41s7.33,24.41,16,24.41s16-11.18,16-24.41
				S524.08,872.12,515.41,872.12z"/>
		</g>
		<g>
			<ellipse class="st0" cx="598.65" cy="896.93" rx="20.5" ry="28.91"/>
			<path class="st2" d="M598.65,930.34c-13.79,0-25-14.99-25-33.41c0-18.42,11.22-33.41,25-33.41c13.79,0,25,14.99,25,33.41
				C623.65,915.35,612.43,930.34,598.65,930.34z M598.65,872.52c-8.67,0-16,11.18-16,24.41s7.33,24.41,16,24.41s16-11.18,16-24.41
				S607.32,872.52,598.65,872.52z"/>
		</g>
	</g>
	<g>
		<g>
			<ellipse class="st0" cx="268.24" cy="897.74" rx="20.5" ry="28.91"/>
			<path class="st2" d="M268.24,931.15c-13.79,0-25-14.99-25-33.41c0-18.42,11.22-33.41,25-33.41s25,14.99,25,33.41
				C293.24,916.16,282.03,931.15,268.24,931.15z M268.24,873.33c-8.67,0-16,11.18-16,24.41s7.33,24.41,16,24.41s16-11.18,16-24.41
				S276.92,873.33,268.24,873.33z"/>
		</g>
		<g>
			<ellipse class="st0" cx="226.01" cy="896.28" rx="20.5" ry="28.91"/>
			<path class="st2" d="M226.01,929.69c-13.79,0-25-14.99-25-33.41c0-18.42,11.22-33.41,25-33.41s25,14.99,25,33.41
				C251.01,914.7,239.79,929.69,226.01,929.69z M226.01,871.87c-8.67,0-16,11.18-16,24.41s7.33,24.41,16,24.41s16-11.18,16-24.41
				S234.68,871.87,226.01,871.87z"/>
		</g>
		<g>
			<ellipse class="st0" cx="309.24" cy="896.69" rx="20.5" ry="28.91"/>
			<path class="st2" d="M309.24,930.1c-13.79,0-25-14.99-25-33.41c0-18.42,11.22-33.41,25-33.41c13.79,0,25,14.99,25,33.41
				C334.25,915.11,323.03,930.1,309.24,930.1z M309.24,872.28c-8.67,0-16,11.18-16,24.41s7.33,24.41,16,24.41s16-11.18,16-24.41
				S317.92,872.28,309.24,872.28z"/>
		</g>
	</g>
	<path class="st1" d="M480.81,885.53c-44.02,1.08-88.05,0.73-132.04-0.98c-8-0.31-9.25,9.42-1.12,9.73
		c45.13,1.76,90.31,2.06,135.46,0.96C491.45,895.04,488.36,885.35,480.81,885.53z"/>
	<ellipse class="st1" cx="413.79" cy="719.05" rx="193.73" ry="137.69"/>
	<g>
		<polygon class="st3" points="859.02,313.65 1040.76,313.65 1040.76,588.82 862.86,588.82 		"/>
		<path class="st1" d="M1030.55,280.37c7.6,1.93,14.24,5.48,17.5,12.93c1.69,3.86,2.82,8.32,2.82,12.51
			c0.15,100.13,0.14,200.25,0.09,300.38c-0.01,15.46-10.18,25.35-25.75,25.36c-50.87,0.02-101.74,0.02-152.62,0
			c-15.7-0.01-25.75-9.98-25.76-25.7c-0.04-43.2-0.02-86.41-0.02-129.61c0-56.58,0.01-113.16-0.01-169.73
			c0-10.6,3.99-18.86,13.73-23.74c2.11-1.06,4.48-1.6,6.73-2.38C921.7,280.37,976.12,280.37,1030.55,280.37z M1034.29,318.31
			c-57.03,0-113.86,0-170.76,0c0,89.85,0,179.41,0,269.07c57.03,0,113.87,0,170.76,0C1034.29,497.55,1034.29,407.98,1034.29,318.31z
			 M937.15,607.69c-0.05,6.53,5.05,11.83,11.55,12c6.39,0.16,11.85-5.12,11.96-11.58c0.12-6.7-5.12-12.12-11.71-12.15
			C942.5,595.94,937.2,601.2,937.15,607.69z M949.28,297.5c-7.98,0-15.97,0.02-23.95-0.01c-2.1-0.01-4.15,0.22-4.19,2.82
			c-0.04,2.65,2.05,2.86,4.13,2.86c15.74-0.01,31.48-0.01,47.22,0c2.06,0,4.18-0.15,4.2-2.79c0.01-2.59-2.01-2.9-4.13-2.89
			C964.79,297.52,957.04,297.5,949.28,297.5z"/>
	</g>
	<g>
		<path class="st4" d="M974.15,527.96c-0.17,0.85-0.29,1.72-0.52,2.56c-0.61,2.23-1.84,4.19-3.38,6.02
			c-2.37,2.81-5.26,5.19-8.23,7.48c-3.51,2.7-7.04,5.38-10.56,8.07c-1.35,1.03-2.81,1.08-4.11,0.08c-4.6-3.53-9.21-7.05-13.76-10.63
			c-2.3-1.82-4.38-3.85-6.07-6.15c-1.6-2.18-2.67-4.52-2.92-7.13c-0.01-0.1-0.05-0.19-0.07-0.29c0-0.66,0-1.31,0-1.97
			c0.03-0.14,0.07-0.27,0.08-0.41c0.27-2.49,1.15-4.8,2.84-6.82c2.39-2.86,5.59-4.52,9.61-4.86c4.52-0.39,8.2,1.09,11.2,4.04
			c0.37,0.37,0.72,0.75,1.05,1.11c0.74-0.71,1.4-1.43,2.17-2.06c3.78-3.07,8.18-3.94,13.02-2.55c4.97,1.42,7.88,4.63,9.16,9.04
			c0.24,0.82,0.33,1.68,0.49,2.52C974.15,526.65,974.15,527.3,974.15,527.96z M949.32,550.28c0.12-0.08,0.21-0.14,0.29-0.2
			c3.97-3.04,7.97-6.05,11.9-9.12c2.68-2.09,5.22-4.31,7.2-6.97c1.92-2.57,2.86-5.36,2.42-8.45c-0.48-3.33-2.09-6.1-5.44-7.84
			c-3.12-1.62-6.41-1.82-9.73-0.41c-1.96,0.83-3.41,2.19-4.61,3.76c-0.19,0.25-0.36,0.51-0.57,0.75c-0.75,0.87-2.16,0.87-2.91,0
			c-0.74-0.85-1.4-1.75-2.22-2.53c-1.8-1.72-4.04-2.74-6.72-2.86c-4.92-0.21-9.23,2.46-10.76,6.6c-1.45,3.92-0.76,7.57,1.77,10.99
			c1.58,2.13,3.52,3.99,5.64,5.69c3.52,2.8,7.11,5.53,10.67,8.28C947.27,548.74,948.29,549.5,949.32,550.28z"/>
		<path class="st5" d="M949.32,550.28c-1.03-0.78-2.05-1.54-3.05-2.32c-3.56-2.75-7.15-5.48-10.67-8.28
			c-2.13-1.69-4.06-3.56-5.64-5.69c-2.54-3.42-3.23-7.06-1.77-10.99c1.53-4.15,5.84-6.81,10.76-6.6c2.68,0.11,4.92,1.14,6.72,2.86
			c0.82,0.78,1.48,1.69,2.22,2.53c0.76,0.87,2.16,0.87,2.91,0c0.21-0.24,0.38-0.5,0.57-0.75c1.21-1.57,2.66-2.93,4.61-3.76
			c3.31-1.41,6.6-1.21,9.73,0.41c3.35,1.74,4.96,4.51,5.44,7.84c0.44,3.09-0.51,5.88-2.42,8.45c-1.99,2.66-4.53,4.88-7.2,6.97
			c-3.94,3.07-7.93,6.08-11.9,9.12C949.52,550.15,949.43,550.2,949.32,550.28z"/>
	</g>
	<g>
		<path class="st0" d="M964.64,494.95c-10.59,0-21.17,0-31.76,0c-0.65-0.06-1.29-0.15-1.94-0.16c-4.19-0.11-8.38-0.28-12.48-1.27
			c-8.74-2.11-15.23-7.06-19.1-15.24c-2.39-5.07-3.11-10.52-3.17-16.04c-0.12-11.37-0.22-22.74-0.17-34.11
			c0.03-5.45,0.06-10.94,1.38-16.29c2.3-9.32,7.74-16,16.72-19.65c4.82-1.96,9.91-2.51,15.04-2.56c10.72-0.12,21.44-0.21,32.16-0.17
			c5.63,0.02,11.29-0.01,16.83,1.19c10.23,2.23,17.4,8.09,21,18.05c1.73,4.78,2.14,9.78,2.16,14.81
			c0.04,12.16,0.07,24.33-0.03,36.49c-0.03,3.46-0.3,6.94-0.83,10.35c-1.09,6.99-4.24,12.94-9.76,17.5
			c-5.38,4.44-11.75,6.23-18.58,6.68C969.64,494.7,967.14,494.81,964.64,494.95z M948.76,485.62c0-0.05,0-0.11,0-0.16
			c2.78,0,5.57,0.08,8.35-0.02c6-0.22,12.05-0.14,17.99-0.89c8.12-1.03,13.6-5.73,15.58-13.81c0.79-3.23,1.06-6.65,1.12-10
			c0.19-9.79,0.26-19.58,0.18-29.37c-0.04-5.11-0.2-10.25-0.8-15.32c-1-8.48-6.35-14.25-14.69-15.91
			c-3.64-0.72-7.43-0.95-11.16-1.01c-9.89-0.15-19.79-0.16-29.69-0.05c-4.59,0.05-9.22,0.22-13.76,0.88
			c-8.05,1.18-13.53,6.41-15.16,14.36c-0.7,3.44-0.94,7.01-1.02,10.53c-0.18,8.52-0.25,17.04-0.15,25.56
			c0.06,5.9,0.21,11.82,0.79,17.69c0.59,6.04,3.47,10.95,8.89,14.07c3.31,1.91,6.98,2.71,10.75,2.84
			C933.57,485.3,941.17,485.43,948.76,485.62z"/>
		<path class="st0" d="M921.62,442.17c0-14.96,12.21-27.14,27.16-27.1c14.98,0.04,27.02,12.07,27.08,27.06
			c0.06,14.94-12.12,27.16-27.09,27.16C933.8,469.3,921.62,457.13,921.62,442.17z M948.75,459.74c9.74,0,17.55-7.8,17.57-17.54
			c0.02-9.73-7.79-17.57-17.52-17.6c-9.77-0.03-17.64,7.82-17.62,17.59C931.19,451.93,939.02,459.74,948.75,459.74z"/>
		<path class="st0" d="M977.09,407.69c3.54,0.07,6.25,2.93,6.16,6.5c-0.09,3.48-2.94,6.18-6.45,6.12c-3.48-0.06-6.26-2.98-6.18-6.52
			C970.7,410.34,973.58,407.61,977.09,407.69z"/>
	</g>
</g>
</svg>
