<?xml version="1.0" encoding="utf-8"?>
<!-- Generator: Adobe Illustrator 24.0.2, SVG Export Plug-In . SVG Version: 6.00 Build 0)  -->
<svg version="1.1" id="Capa_1" xmlns="http://www.w3.org/2000/svg" xmlns:xlink="http://www.w3.org/1999/xlink" x="0px" y="0px"
	 viewBox="0 0 1080 1080" style="enable-background:new 0 0 1080 1080;" xml:space="preserve">
<style type="text/css">
	.st0{fill:#071526;}
	.st1{fill:#FEF4D8;stroke:#071526;stroke-width:7;stroke-miterlimit:10;}
	.st2{fill:#FE9256;stroke:#071526;stroke-width:7;stroke-miterlimit:10;}
	.st3{fill:#3A2F4D;stroke:#071526;stroke-width:7;stroke-miterlimit:10;}
	.st4{fill:#D53D76;stroke:#071526;stroke-width:7;stroke-miterlimit:10;}
	.st5{fill:#092A40;stroke:#071526;stroke-width:7;stroke-miterlimit:10;}
	.st6{fill:#FEE18F;stroke:#071526;stroke-width:7;stroke-miterlimit:10;}
	.st7{fill:#174461;stroke:#071526;stroke-width:7;stroke-miterlimit:10;}
	.st8{fill:#FE755C;stroke:#071526;stroke-width:7;stroke-miterlimit:10;}
	.st9{fill:#235C81;stroke:#071526;stroke-width:7;stroke-miterlimit:10;}
	.st10{fill:#FEB04E;stroke:#071526;stroke-width:7;stroke-miterlimit:10;}
	.st11{fill:#FECD47;stroke:#071526;stroke-width:7;stroke-miterlimit:10;}
	.st12{fill:#5B3256;stroke:#071526;stroke-width:7;stroke-miterlimit:10;}
	.st13{fill:#FE4180;stroke:#071526;stroke-width:7;stroke-miterlimit:10;}
	.st14{fill:#AC396B;stroke:#071526;stroke-width:7;stroke-miterlimit:10;}
	.st15{fill:#F25C06;}
	.st16{fill:#562811;}
</style>
<g>
	<ellipse class="st0" cx="547.74" cy="705.44" rx="245" ry="238.63"/>
	<g>
		<path class="st0" d="M353.45,459.64c1.8-7.41,6.95-10.43,13.77-11.14c6.46-0.67,12.84-1.73,18.93-3.96
			c49.85-18.31,84.32-51.67,100.64-102.84c6.13-19.23,7.68-38.86,6.07-58.88c-1.23-15.18-4.04-30-9.35-44.27
			c-15.37-41.34-43.08-71.36-83.05-90.02c-18.95-8.84-38.79-14.92-59.26-19.04c-26.71-5.37-53.72-7.35-80.91-6.74
			c-16.4,0.37-32.78,1.1-49.17,1.74c-11.98,0.47-23.97,0.88-35.95,0.19c-18.67-1.08-36.95-4.12-54.22-11.79
			c-17.66-7.84-33.03-18.96-46.74-32.49c-8.22-8.11-15.44-17.07-22.28-26.35c-0.75-1.01-1.39-2.1-2-3.2
			c-0.21-0.38-0.16-0.9-0.23-1.35c1.49-0.75,2.79-0.02,4.15,0.29c7.52,1.74,15.01,3.63,22.57,5.12c15.06,2.97,30.31,3.93,45.64,3.85
			c21.53-0.11,42.76-2.91,63.8-7.24c20.69-4.26,41.02-9.97,61.5-15.09c15.43-3.86,30.84-7.86,46.35-11.38
			c18.82-4.27,37.97-6.33,57.26-6.01c51.6,0.86,97.15,18.04,136.61,51.33c6.88,5.8,13.35,12.04,19.64,18.47
			c7.49,7.65,13.34,16.38,17.4,26.26c3.83,9.33,7.41,18.76,11.14,28.13c0.69,1.73,1.05,3.64,2.37,5c1.68,0.05,2.25-1.09,2.89-2.19
			c1.82-3.14,3.61-6.29,5.48-9.4c12.4-20.61,26.49-39.95,43.37-57.16c12.42-12.67,26.03-23.87,41.22-33.08
			c23.55-14.28,49.04-22.76,76.4-25.86c16.54-1.87,33.02-1.8,49.56-0.14c24.1,2.42,47.53,7.86,70.63,14.95
			c20.04,6.15,40.21,11.8,60.75,16.04c14.21,2.93,28.51,5.24,42.97,6.59c13.37,1.24,26.75,1.86,40.16,1.24
			c18.31-0.86,36.4-3.4,54.26-7.54c1.07-0.25,2.15-0.44,3.24-0.6c0.29-0.04,0.6,0.12,1.24,0.26c-0.16,0.68-0.27,1.38-0.51,2.03
			c-0.16,0.43-0.51,0.79-0.79,1.17c-11.98,16.41-25.65,31.15-42.22,43.06c-17.04,12.25-35.85,20.36-56.51,24.04
			c-9.96,1.77-20.02,2.56-30.14,2.49c-33.44-0.21-66.87-0.44-100.31-0.76c-9.46-0.09-18.91-0.26-28.38,0.31
			c-17.72,1.08-35.03,4.32-51.92,9.69c-22.51,7.16-43.7,17.17-63.34,30.31c-21.9,14.66-39.35,33.41-51.39,56.99
			c-8.25,16.16-13.48,33.28-15.87,51.24c-3.09,23.21-0.47,45.91,6.29,68.23c5.9,19.52,14.66,37.57,27.33,53.61
			c18.4,23.3,41.91,39.35,69.87,49.04c7.3,2.53,14.73,4.61,22.37,5.9c2.48,0.42,4.95,1.03,7.31,1.87c3.2,1.14,5.84,3.07,7.02,6.56
			c-0.25,0.43-0.39,0.93-0.72,1.19c-0.87,0.67-1.78,1.31-2.76,1.81c-11.89,6.07-24.39,10.18-37.64,12.02
			c-7.39,1.02-14.75,0.94-22.17,0.25c-10.29-0.95-20.48-0.01-30.42,2.98c-13.67,4.11-24.97,11.87-34.37,22.5
			c-7.44,8.41-13.91,17.55-19.65,27.19c-6.05,10.16-11.96,20.4-17.95,30.6c-3.2,5.44-6.45,10.85-10.51,15.71
			c-1.51,1.81-3.11,3.6-4.92,5.09c-4.53,3.73-8.7,3.69-13.21-0.15c-1.91-1.62-3.69-3.47-5.19-5.48c-2.73-3.66-5.36-7.42-7.74-11.31
			c-6.75-11.03-13.33-22.16-20.01-33.23c-4.65-7.7-9.53-15.25-15.28-22.19c-4.74-5.72-9.86-11.08-15.68-15.71
			c-14.38-11.46-30.87-16.75-49.17-16.59c-3.31,0.03-6.66,0.04-9.91,0.53c-7.8,1.18-15.52,0.42-22.98-1.56
			c-11.56-3.08-22.96-6.8-34.41-10.27C354.16,460.42,353.96,460.1,353.45,459.64z M552.3,523.92c1.2-1.9,2.17-3.32,3.02-4.8
			c8.18-14.21,16.34-28.43,24.49-42.67c0.94-1.64,1.83-3.32,2.54-5.06c1.73-4.22,1.44-8.4-1-12.24
			c-4.99-7.85-12.17-12.17-21.51-12.59c-2.01-0.09-4.08,0.32-6.06,0.77c-4.88,1.11-7.47,4.44-8.28,9.22
			c-0.29,1.7-0.34,3.46-0.34,5.19c-0.02,17.82-0.03,35.65,0,53.47c0,1.86,0.25,3.72,0.39,5.62
			C547.79,521.86,549.77,522.76,552.3,523.92z"/>
		<path class="st0" d="M812.33,238.97c1.95,4.94,2.7,9.27,3.52,13.55c2.26,11.82,3.16,23.74,2.24,35.77
			c-1.8,23.42-11.89,42.2-31.31,55.69c-10.61,7.37-22.17,12.58-35.02,14.67c-13,2.12-25.76,1.14-38.29-2.88
			c-16.34-5.24-30.03-14.44-40.94-27.69c-10.24-12.43-15.71-26.8-17.19-42.77c-2.68-28.76,7.77-52.45,27.93-72.39
			c3.05-3.02,6.62-5.38,10.47-7.23c7.81-3.76,15.69-7.37,23.55-11.01c2.46-1.14,5.03-1.8,7.77-1.73c5.01,0.11,7.62,2.53,7.92,7.43
			c0.16,2.56-0.23,5.01-1.25,7.39c-1.42,3.34-2.82,6.68-4.11,10.07c-2.89,7.57-4.69,15.35-4.42,23.54c0.32,9.3,3.76,17.2,10.55,23.5
			c7.8,7.24,16.9,12.08,27.46,13.89c7.56,1.29,14.76,0.06,21.43-3.84c5.51-3.22,10.33-7.28,13.99-12.53
			c4.5-6.47,8.83-13.06,13.23-19.6C810.54,241.77,811.2,240.71,812.33,238.97z"/>
		<path class="st0" d="M337.93,203.12c-0.83,1.92-1.62,3.62-2.31,5.35c-2.17,5.41-4.5,10.76-6.39,16.26
			c-1.85,5.39-2.67,11.01-2.55,16.75c0.18,8.77,3.17,16.41,9.41,22.54c9.19,9.02,20.27,14.35,33.13,15.6
			c5.28,0.51,10.34-0.72,15.12-3.02c7.6-3.65,13.6-9.14,17.99-16.28c3.38-5.5,6.43-11.21,9.64-16.82c0.76-1.33,1.58-2.64,2.38-3.97
			c1.72,0.89,1.85,2.46,2.19,3.73c1.38,5.17,2.71,10.37,3.82,15.6c1.94,9.15,2.49,18.42,2.07,27.75
			c-0.72,16.15-6.06,30.41-16.78,42.69c-14.61,16.73-32.75,26.94-54.76,29.9c-12.68,1.7-25.16,0.49-37.19-4.24
			c-13.1-5.15-24.88-12.31-34.36-22.81c-14.33-15.86-21.49-34.67-22.04-55.96c-0.25-9.72,1.78-19.13,5.5-28.12
			c4.81-11.6,11.37-22.14,19.67-31.57c4.85-5.5,10.54-9.92,17.2-13.08c8.73-4.15,17.91-4.64,27.29-3.45c2.65,0.34,5.26,1,7.85,1.66
			C335.83,201.9,336.74,202.54,337.93,203.12z"/>
		<path class="st0" d="M892.95,359.08c-0.09-2.49,0.74-4.4,1.32-6.33c3.15-10.42,5.81-20.95,7.59-31.7
			c5.28-31.88,2.67-62.84-10.95-92.48c-7.37-16.04-17.31-30.38-29.17-43.4c-4.25-4.66-8.81-9.03-13.24-13.51
			c-1.42-1.44-2.88-2.85-4.58-4.52c1.7-1.37,3.38-1.4,5.04-1.51c3.93-0.25,7.86-0.54,11.8-0.77c12.75-0.74,25.5-1.47,38.25-2.19
			c6.93-0.39,13.85-0.78,20.78-1.15c1.42-0.08,2.84-0.13,4.25-0.09c5.93,0.17,10.64,2.75,14.05,7.52c1.82,2.56,3.41,5.31,4.87,8.09
			c5.03,9.61,7.94,19.93,9.31,30.61c4.92,38.3-0.79,75.11-16.27,110.4c-5.68,12.95-13.28,24.7-23.61,34.53
			c-0.8,0.76-1.59,1.53-2.41,2.27C905.16,359.17,899.61,360.54,892.95,359.08z"/>
		<path class="st0" d="M240.95,163.16c-2.73,2.74-4.82,4.87-6.95,6.96c-13.63,13.46-25.74,28.12-35.53,44.64
			c-10.73,18.1-17.85,37.52-20.97,58.33c-2.23,14.88-2.32,29.81-0.65,44.78c2.02,18.1,6.44,35.62,12.3,52.81
			c0.49,1.44,0.86,2.93,1.34,4.6c-2.05,0.02-2.75-1.36-3.64-2.31c-7.88-8.4-15.31-17.18-22.11-26.48
			c-11.5-15.74-20.96-32.57-27.56-50.96c-7.39-20.62-10.29-41.87-8.86-63.69c1.14-17.4,4.83-34.3,11.03-50.61
			c1.17-3.07,2.74-6.02,4.43-8.85c4.49-7.52,11.34-11.28,19.98-11.4c4.38-0.06,8.81,0.47,13.16,1.09
			c7.19,1.02,14.38,1.74,21.66,1.52c11.66-0.35,23.32-0.68,34.98-0.98C235.72,162.56,237.9,162.42,240.95,163.16z"/>
	</g>
	<g>
		<path class="st1" d="M539.96,970.6c-7.93-10.17-17.6-18.76-26.26-28.27c-18.98-20.85-39.26-40.51-58.78-60.88
			c-16.33-17.05-32.32-34.42-48.47-51.62c-1.32-1.4-2.53-2.8-2.45-4.88c1.92-2.19,3.7-4.54,5.8-6.56
			c23.43-22.62,46.9-45.18,70.37-67.76c0.5-0.09,1.01-0.15,1.52-0.15c15.65,20.26,35.11,36.96,52.21,55.91
			c19.09,21.16,40.07,40.61,59.27,61.67c8.12,8.91,17.26,16.9,24.49,26.63c-0.23,3.84-3.72,4.81-5.89,7.05
			c-22.85,23.51-48.36,44.33-70.18,68.88C541.04,970.6,540.5,970.6,539.96,970.6z"/>
		<path class="st2" d="M221.03,635.74c-17.51-18.68-35.93-36.47-53.11-55.49c-10.2-11.29-21.69-21.43-32.6-32.08
			c0-0.54,0-1.08,0-1.62c1.62-1.36,3.34-2.61,4.85-4.08c21.29-20.7,42.5-41.46,63.85-62.1c3.22-3.11,6.99-5.64,10.51-8.44
			c21.33,22.16,42.89,44.12,63.87,66.61c6.63,7.11,14.23,13.59,18.79,22.49c-6.9,6.66-13.84,13.29-20.7,19.99
			c-6.15,6-11.87,12.48-18.4,18.02C244.77,610.33,232.72,622.84,221.03,635.74z"/>
		<path class="st3" d="M554.14,396.05c5.43-21.76,10.97-43.49,18.56-64.63c0.94-2.62,2.15-4.02,5.36-2.62
			c15.02,6.54,31.38,8.6,46.81,13.78c41.44,13.91,84.17,23.52,125.59,37.51c8.09,2.73,16.43,4.8,24.77,6.67
			c5.62,1.26,7.07,3.64,5.3,9.25c-5.77,18.29-11.14,36.71-16.6,55.09c-0.45,1.51-0.4,3.16-0.58,4.75
			c-3.71,10.01-7.22,20.06-9.81,30.46c-1.67,6.7-2.82,13.63-6.22,19.81c-17.24-3.56-33.94-8.92-50.59-14.54
			c-18.43-6.22-37.59-9.89-56.12-15.99c-24.02-7.91-48.55-14.3-72.85-21.34c-1.02-2.81-2.04-5.62-3.06-8.43
			C561.18,429.22,557.66,412.63,554.14,396.05z"/>
		<path class="st4" d="M554.14,396.05c3.52,16.58,7.04,33.17,10.55,49.75c-1.47,0.64-2.89,1.5-4.43,1.87
			c-28.1,6.73-56.18,13.53-84.33,20.05c-20.59,4.76-40.6,11.65-61.59,15.12c-10.02,1.65-20.59,3.51-29.85,8.71
			c-2.09-1.66-4.17-3.32-6.26-4.98c-12.47-13.45-24.94-26.9-37.41-40.35c-3.72-19.43-7.99-38.75-13.87-57.62
			c-2.39-7.67-0.11-10.12,7.08-12.06c50.62-13.65,102-24.2,152.64-37.77c14.4-3.86,29.31-6.13,43.62-10.58
			c5.93-1.84,6.8,2,7.78,5.89c4.98,19.69,9.85,39.41,14.8,59.11C553.13,394.18,553.71,395.1,554.14,396.05z"/>
		<path class="st5" d="M747.33,506.11c3.39-6.19,4.55-13.11,6.22-19.81c2.59-10.39,6.1-20.45,9.81-30.46
			c15.16-14.35,30.47-28.55,45.39-43.15c3.71-3.63,5.65-4.01,9.4-0.06c16.8,17.76,34.23,34.92,50.88,52.81
			c22.47,24.15,45.35,47.91,68.22,71.68c8.9,9.25,17.72,18.61,26.89,28.26c-29.71,28.32-59.4,56.62-89.08,84.91
			c-20.97-22.34-41.79-44.82-62.95-66.98c-19.71-20.64-39.75-40.96-59.72-61.35c-2.32-2.37-3.98-5.05-5.49-7.91
			C747.04,511.41,747.18,508.76,747.33,506.11z"/>
		<path class="st6" d="M617.65,894.67c-7.23-9.72-16.37-17.72-24.49-26.63c-19.2-21.06-40.18-40.51-59.27-61.67
			c-17.09-18.94-36.55-35.65-52.21-55.91c1.94-2.21,3.75-4.55,5.85-6.59c16.56-16.1,33.09-32.21,49.8-48.15
			c7.16-6.83,14.71-13.26,22.09-19.87c2.16,1.96,4.56,3.71,6.43,5.92c8.56,10.14,17.49,19.9,27.66,28.47
			c3.43,3.73,6.85,7.47,10.3,11.18c20.36,21.89,40.28,44.2,62.16,64.64c9.03,12.57,21.05,22.41,31.18,33.97
			c-17.31,15.22-32.48,32.66-49.93,47.76c-7.92,6.85-14.96,14.71-22.47,22.03C622.68,891.83,621.09,894.64,617.65,894.67z"/>
		<path class="st7" d="M746.9,514.06c1.51,2.86,3.18,5.55,5.49,7.91c19.97,20.39,40.01,40.71,59.72,61.35
			c21.16,22.16,41.98,44.64,62.95,66.98c-15.97,13.29-28.88,29.83-45.28,42.67c-1.68,1.32-3.09,2.98-4.58,4.53
			c-16.1,16.8-33.36,32.4-50.41,48.21c-9.98-4.75-16.05-13.88-23.46-21.4c-17.25-17.49-34.02-35.44-50.98-53.2
			c0.94-10.52,6.16-20.1,6.84-30.68c1.26-2.36,2.95-4.59,3.7-7.1c6.26-20.94,12.28-41.95,18.51-62.9
			C734.99,551.58,737.97,531.89,746.9,514.06z"/>
		<path class="st8" d="M340.83,446.21c12.47,13.45,24.94,26.9,37.41,40.35c-2.01,0.08-3.5,1.11-4.91,2.45
			c-22.88,21.83-45.8,43.64-68.67,65.48c-1.9,1.82-4.25,3.45-4.25,6.54c-1.07,0-2.14,0-3.21-0.01
			c-4.56-8.91-12.16-15.38-18.79-22.49c-20.98-22.5-42.53-44.45-63.87-66.61c21.56-23.24,45.15-44.37,68.49-65.76
			c3.11-2.85,5.64-8.62,9.48-7.81c3.82,0.8,6.9,5.55,10.09,8.79C315.38,420.12,328.09,433.18,340.83,446.21z"/>
		<path class="st9" d="M700.34,671.12c16.96,17.76,33.74,35.72,50.98,53.2c7.42,7.52,13.49,16.64,23.46,21.4
			c-18.83,17.41-36.27,36.27-55.64,53.12c-7.67,6.67-14.69,14.1-22.01,21.18c-10.13-11.57-22.15-21.4-31.18-33.97
			c2.86-8.98,5.66-17.97,7.05-27.33c2.12-5.99,4.47-11.92,6.32-18C686.42,717.55,693.35,694.33,700.34,671.12z"/>
		<path class="st10" d="M297.19,561.04c1.07,0,2.14,0,3.21,0.01c6.45,8.6,14.44,15.83,21.65,23.73
			c18.27,20.03,37.53,39.18,56.58,58.5c5.67,5.75,10.74,11.93,15.67,18.27c-0.64,6.17-6.86,7.12-10.24,10.72
			c-9.22,9.82-18.54,19.64-28.67,28.49c-13.21,11.53-25.42,23.97-37.23,36.86c-14-16.23-30.63-29.96-44.23-46.57
			c-1.53-1.87-3.28-3.57-5.03-5.24c-16.72-15.96-32.1-33.19-47.86-50.06c11.69-12.9,23.74-25.4,37.06-36.69
			c6.53-5.54,12.26-12.02,18.4-18.02C283.35,574.33,290.29,567.7,297.19,561.04z"/>
		<path class="st11" d="M318.15,737.61c11.82-12.89,24.03-25.32,37.23-36.86c10.13-8.85,19.45-18.67,28.67-28.49
			c3.38-3.6,9.6-4.56,10.24-10.72c1.07,0,2.14,0,3.21,0c-0.05,2.76,1.97,4.26,3.64,5.98c16.56,17.11,33.22,34.13,49.66,51.35
			c9.95,10.43,19.58,21.16,29.35,31.76c-23.46,22.58-46.94,45.14-70.37,67.76c-2.09,2.02-3.87,4.37-5.8,6.56
			c-10.78-5.5-17.42-15.52-25.54-23.85c-2.14-2.2-4.11-4.86-6.3-7.15C354.19,775.13,336.16,756.38,318.15,737.61z"/>
		<path class="st10" d="M480.16,750.62c-9.77-10.6-19.4-21.34-29.35-31.76c-16.44-17.22-33.1-34.24-49.66-51.35
			c-1.66-1.72-3.68-3.22-3.64-5.98c9.37-10.64,19.61-20.37,30.08-29.95c15.77-14.42,30.72-29.73,46.02-44.66
			c7.54,7.06,15.09,14.12,22.63,21.18c4.86,7.14,10.93,13.2,16.92,19.37c15.53,16.01,30.85,32.24,46.25,48.37
			c-7.37,6.61-14.92,13.04-22.09,19.87c-16.71,15.94-33.24,32.06-49.8,48.15c-2.1,2.04-3.91,4.39-5.85,6.59
			C481.17,750.48,480.66,750.53,480.16,750.62z"/>
		<path class="st12" d="M746.9,514.06c-8.93,17.84-11.9,37.52-17.51,56.39c-6.23,20.95-12.25,41.96-18.51,62.9
			c-0.75,2.51-2.44,4.74-3.7,7.1c-3.65-0.75-7.36-1.26-10.92-2.3c-30.09-8.81-60.15-17.71-90.22-26.59
			c-4.62-9.29-4.3-19.84-7.47-29.5c-4.34-17.91-8.69-35.82-13.01-53.74c-5.95-24.69-11.86-49.39-17.79-74.08
			c24.31,7.04,48.83,13.44,72.85,21.34c18.53,6.1,37.69,9.77,56.12,15.99c16.66,5.62,33.36,10.98,50.59,14.54
			C747.18,508.76,747.04,511.41,746.9,514.06z"/>
		<path class="st13" d="M567.75,454.24c5.93,24.69,11.85,49.39,17.79,74.08c4.32,17.92,8.67,35.83,13.01,53.74
			c-19.15,4.91-38.29,9.9-57.47,14.7c-14.96,3.74-30.31,5.91-44.84,11.34c-7.54-7.06-15.09-14.12-22.63-21.18
			c-5.96-7.62-12.41-14.77-19.22-21.66c-17.97-18.18-35.74-36.57-53.43-55.02c-5.74-5.99-10.99-12.45-16.47-18.7
			c9.27-5.2,19.83-7.05,29.85-8.71c20.99-3.46,41-10.35,61.59-15.12c28.15-6.51,56.23-13.31,84.33-20.05
			c1.54-0.37,2.96-1.23,4.43-1.87C565.72,448.61,566.73,451.43,567.75,454.24z"/>
		<path class="st2" d="M384.49,491.54c5.48,6.25,10.73,12.71,16.47,18.7c17.69,18.46,35.46,36.84,53.43,55.02
			c6.81,6.89,13.26,14.04,19.22,21.66c-15.3,14.93-30.25,30.25-46.02,44.66c-10.48,9.58-20.71,19.31-30.08,29.95
			c-1.07,0-2.14,0-3.21,0c-4.94-6.33-10.01-12.52-15.67-18.27c-19.05-19.32-38.3-38.46-56.58-58.5c-7.2-7.9-15.2-15.13-21.65-23.73
			c0-3.1,2.35-4.72,4.25-6.54c22.87-21.84,45.79-43.65,68.67-65.48c1.41-1.34,2.9-2.38,4.91-2.45
			C380.32,488.22,382.4,489.88,384.49,491.54z"/>
		<path class="st8" d="M496.25,608.1c14.53-5.43,29.88-7.6,44.84-11.34c19.18-4.8,38.31-9.79,57.47-14.7
			c3.18,9.66,2.85,20.2,7.47,29.49c4.51,18.96,9.06,37.9,13.51,56.87c2.61,11.14,7.22,21.83,7.68,33.46
			c-11.59,1.37-22.42,5.78-33.71,8.35c-10.17-8.57-19.1-18.33-27.66-28.47c-1.86-2.21-4.27-3.96-6.43-5.92
			c-15.4-16.14-30.72-32.36-46.25-48.38C507.18,621.3,501.11,615.24,496.25,608.1z"/>
		<path class="st1" d="M593.5,710.24c11.29-2.57,22.12-6.98,33.71-8.35c3.76,14.16,7.69,28.28,11.13,42.52
			c0.76,3.13,2.15,4.64,4.88,5.45c9.92,2.96,19.85,5.91,29.78,8.86c-1.39,9.36-4.19,18.35-7.05,27.33
			c-21.88-20.43-41.8-42.74-62.16-64.64C600.35,717.71,596.94,713.97,593.5,710.24z"/>
		<path class="st14" d="M673.01,758.73c-9.93-2.95-19.85-5.89-29.78-8.86c-2.73-0.82-4.13-2.32-4.88-5.45
			c-3.44-14.24-7.38-28.36-11.13-42.52c-0.46-11.64-5.07-22.32-7.68-33.46c-4.45-18.97-9-37.92-13.51-56.87
			c30.07,8.88,60.13,17.78,90.22,26.59c3.56,1.04,7.28,1.54,10.92,2.3c-0.68,10.58-5.9,20.15-6.83,30.68
			c-6.99,23.21-13.92,46.43-21.01,69.61C677.47,746.81,675.13,752.73,673.01,758.73z"/>
	</g>
	<path class="st15" d="M120.57,512.45c0,0,76.11,73.14,120.65,81.62c44.54,8.48,118.79,10.61,118.79,10.61l74.24,6.36l25.45,21.21
		l4.24,44.54l-31.82,48.79l-53.03,38.18c0,0-84.85,33.94-148.48,25.45c0,0-132.96-69.66-137.54-88.92
		c-4.58-19.26-0.82,5.65-0.82,5.65L120.57,512.45z"/>
	<path class="st15" d="M971.74,513.05c0,0-76.11,73.14-120.65,81.62c-44.54,8.48-118.79,10.61-118.79,10.61l-74.24,6.36
		l-25.45,21.21l-4.24,44.54l31.82,48.79l53.03,38.18c0,0,84.85,33.94,148.48,25.45c0,0,132.96-69.66,137.54-88.92
		c4.58-19.26,0.82,5.65,0.82,5.65L971.74,513.05z"/>
	<path class="st0" d="M446.88,609.94c-13.3-7.58-28.85-8.84-43.81-9.67c-19.64-1.09-39.29-2.09-58.94-3.13
		c-19.09-1.01-38.26-1.62-57.32-3.22c-17.08-1.43-33.7-4.45-48.18-14.13c-8.01-5.35-18.99,5.21-9.8,11.35
		c20.34,13.6,44.48,16.39,68.34,17.76c30.58,1.76,61.18,3.25,91.77,4.87c24.42,1.3,54.44,0.11,64.5,27.45
		c8.72,23.68-2.01,47.84-17.38,66c-31.35,37.03-78.81,63.41-126.15,72.96c-23.09,4.66-46.76,5.5-70,1.45
		c-27.15-4.73-51.49-17.34-74.24-32.47c-23.78-15.81-49.13-33.28-64.44-58c-1.15-1.86-2.23-3.78-3.23-5.74
		c-2.04,6.81-3.97,13.65-5.75,20.53c9.21,12.22,20.73,22.83,32.72,32.33c23.86,18.9,50.08,36.77,78.54,47.91
		c25.03,9.8,52.12,13.41,78.89,12.02c54.13-2.8,106.85-26.61,147.31-62.19c19.82-17.43,39-39.17,43.06-66.22
		C476.2,647.05,467.57,621.72,446.88,609.94z"/>
	<path class="st0" d="M282.84,980.25c1.13,0,2.18,0.12,3.15,0.32c0.35-0.39,0.73-0.76,1.15-1.09c0.02-0.03,0.03-0.05,0.04-0.08
		c0.33-0.68,0.81-1.28,1.43-1.79c0.3-0.32,0.62-0.61,0.95-0.9c-50.09-16.78-94.65-45.21-126.19-87.47
		c-67.33-90.2-64.87-204.34-45.94-307.57c12.32-67.23,29.32-133.82,44.65-200.52c1.9-8.26-14.96-9.95-16.88-1.61
		c-14.36,62.45-29.94,124.8-42.21,187.63c-11.46,58.7-18.71,118.78-11.59,178.33c6.03,50.45,22.61,100.94,52.98,143.81
		c29.7,41.93,71.99,73.9,122.2,93.76c1.92,0.76,3.85,1.47,5.79,2.19C274.43,982.34,277.93,980.25,282.84,980.25z"/>
	<path class="st0" d="M986.31,567.5c-12.27-62.83-27.85-125.18-42.21-187.63c-1.92-8.34-18.78-6.65-16.88,1.61
		c15.34,66.7,32.33,133.29,44.65,200.52c18.92,103.22,21.38,217.36-45.94,307.57c-33.63,45.05-82.04,74.42-136.19,90.68
		c0.05,0,0.09-0.01,0.14-0.01c6.77,0,10.6,3.92,11.64,8.54c1.25,0.2,2.37,0.55,3.36,1.02c6.01-1.98,11.97-4.08,17.84-6.4
		c50.21-19.86,92.5-51.83,122.2-93.76c30.37-42.88,46.95-93.36,52.98-143.81C1005.02,686.28,997.78,626.21,986.31,567.5z"/>
	<path class="st0" d="M648.31,612.58c13.3-7.58,28.85-8.84,43.81-9.67c19.64-1.09,39.29-2.09,58.94-3.13
		c19.09-1.01,38.26-1.62,57.32-3.22c17.08-1.43,33.7-4.45,48.18-14.13c8.01-5.35,18.99,5.21,9.8,11.35
		c-20.34,13.6-44.48,16.39-68.34,17.76c-30.58,1.76-61.18,3.25-91.77,4.87c-24.42,1.3-54.44,0.11-64.5,27.45
		c-8.72,23.68,2.01,47.84,17.38,66c31.35,37.03,78.81,63.41,126.15,72.96c23.09,4.66,46.76,5.5,70,1.45
		c27.15-4.73,51.49-17.34,74.24-32.47c23.78-15.81,49.13-33.28,64.44-58c1.15-1.86,2.23-3.78,3.23-5.74
		c2.04,6.81,3.97,13.65,5.75,20.53c-9.21,12.22-20.73,22.83-32.72,32.33c-23.86,18.9-50.08,36.77-78.54,47.91
		c-25.03,9.8-52.12,13.41-78.89,12.02c-54.13-2.8-106.85-26.61-147.31-62.19c-19.82-17.43-39-39.17-43.06-66.22
		C618.99,649.69,627.63,624.36,648.31,612.58z"/>
	<g>
		<g>
			<ellipse class="st15" cx="732.46" cy="1018.19" rx="27.16" ry="38.3"/>
			<path class="st16" d="M732.46,1061c-17.46,0-31.66-19.2-31.66-42.8c0-23.6,14.2-42.8,31.66-42.8s31.66,19.2,31.66,42.8
				C764.12,1041.8,749.92,1061,732.46,1061z M732.46,984.39c-12.5,0-22.66,15.16-22.66,33.8c0,18.64,10.17,33.8,22.66,33.8
				s22.66-15.16,22.66-33.8C755.12,999.56,744.96,984.39,732.46,984.39z"/>
		</g>
		<g>
			<ellipse class="st15" cx="676.51" cy="1016.27" rx="27.16" ry="38.3"/>
			<path class="st16" d="M676.51,1059.07c-17.46,0-31.66-19.2-31.66-42.8c0-23.6,14.2-42.8,31.66-42.8s31.66,19.2,31.66,42.8
				C708.17,1039.87,693.97,1059.07,676.51,1059.07z M676.51,982.46c-12.5,0-22.66,15.16-22.66,33.8c0,18.64,10.17,33.8,22.66,33.8
				s22.66-15.16,22.66-33.8C699.17,997.63,689,982.46,676.51,982.46z"/>
		</g>
		<g>
			<ellipse class="st15" cx="786.79" cy="1016.81" rx="27.16" ry="38.3"/>
			<path class="st16" d="M786.79,1059.61c-17.46,0-31.66-19.2-31.66-42.8c0-23.6,14.2-42.8,31.66-42.8s31.66,19.2,31.66,42.8
				C818.45,1040.41,804.24,1059.61,786.79,1059.61z M786.79,983c-12.5,0-22.66,15.16-22.66,33.8c0,18.64,10.17,33.8,22.66,33.8
				s22.66-15.16,22.66-33.8C809.45,998.17,799.28,983,786.79,983z"/>
		</g>
	</g>
	<g>
		<g>
			<ellipse class="st15" cx="349.04" cy="1017.87" rx="27.16" ry="38.3"/>
			<path class="st16" d="M349.03,1060.67c-17.46,0-31.66-19.2-31.66-42.8c0-23.6,14.2-42.8,31.66-42.8s31.66,19.2,31.66,42.8
				C380.7,1041.47,366.49,1060.67,349.03,1060.67z M349.03,984.07c-12.5,0-22.66,15.16-22.66,33.8c0,18.64,10.17,33.8,22.66,33.8
				s22.66-15.16,22.66-33.8C371.7,999.23,361.53,984.07,349.03,984.07z"/>
		</g>
		<g>
			<ellipse class="st15" cx="293.08" cy="1015.94" rx="27.16" ry="38.3"/>
			<path class="st16" d="M293.08,1058.75c-17.46,0-31.66-19.2-31.66-42.8c0-23.6,14.2-42.8,31.66-42.8s31.66,19.2,31.66,42.8
				C324.74,1039.54,310.54,1058.75,293.08,1058.75z M293.08,982.14c-12.5,0-22.66,15.16-22.66,33.8c0,18.64,10.17,33.8,22.66,33.8
				s22.66-15.16,22.66-33.8C315.74,997.31,305.58,982.14,293.08,982.14z"/>
		</g>
		<g>
			<ellipse class="st15" cx="403.36" cy="1016.48" rx="27.16" ry="38.3"/>
			<path class="st16" d="M403.36,1059.28c-17.46,0-31.66-19.2-31.66-42.8c0-23.6,14.2-42.8,31.66-42.8s31.66,19.2,31.66,42.8
				C435.02,1040.08,420.82,1059.28,403.36,1059.28z M403.36,982.68c-12.5,0-22.66,15.16-22.66,33.8c0,18.64,10.17,33.8,22.66,33.8
				s22.66-15.16,22.66-33.8C426.02,997.84,415.86,982.68,403.36,982.68z"/>
		</g>
	</g>
	<path class="st0" d="M630.67,1001.71c-58.32,1.43-116.65,0.97-174.94-1.3c-10.6-0.41-12.25,12.48-1.49,12.9
		c59.79,2.33,119.65,2.73,179.48,1.27C644.76,1014.3,640.67,1001.46,630.67,1001.71z"/>
</g>
</svg>
