<?xml version="1.0" encoding="utf-8"?>
<!-- Generator: Adobe Illustrator 24.0.2, SVG Export Plug-In . SVG Version: 6.00 Build 0)  -->
<svg version="1.1" id="Capa_1" xmlns="http://www.w3.org/2000/svg" xmlns:xlink="http://www.w3.org/1999/xlink" x="0px" y="0px"
	 viewBox="0 0 1080 1080" style="enable-background:new 0 0 1080 1080;" xml:space="preserve">
<style type="text/css">
	.st0{fill:#071526;}
	.st1{fill:#F25C06;}
	.st2{fill:#A61204;}
	.st3{fill:#3370A6;}
</style>
<g>
	<path class="st0" d="M897.22,89.46c-3.87,10.9-10.14,20.6-23.02,27.32c-19.14,9.99-45.11,9.88-63.49-0.82
		c-3.81-2.22-6.31-2.22-10.26-0.36c-39.2,18.47-78.52,36.79-117.83,55.12c-2.84,1.33-4.74,2.29-3.82,5.54
		c5.15,18.18-4.36,35.06-24.15,43.92c-20.13,9.01-44.9,7.72-62.88-3.29c-17.87-10.94-23.8-28.32-15.74-46.1
		c0.31-0.68,0.55-1.38,1.02-2.57c-44.81-23.93-89.7-47.9-134.94-72.06c-13.94,7.12-29.44,10.45-45.46,6.25
		c-9.08-2.38-12.88-0.1-18.07,4.54c-45.37,40.62-90.99,81.08-136.7,121.48c-3.37,2.98-3.8,5.06-1.11,8.58
		c11.4,14.91,7.89,33.73-8.08,46.56c-16.2,13.01-40.96,16.38-63.06,8.58c-19.53-6.9-32.47-23.82-30.05-39.29
		c2.94-18.78,19.4-33.3,42.93-35.99c9.37-1.07,19.32,0.82,29.01,1.1c2.7,0.08,6.6-0.04,8.02-1.29
		c48.62-42.91,97.01-85.96,145.42-129c0.15-0.13,0.19-0.33,0.52-0.92c-7.09-8.56-11.09-18-9.01-28.53
		c3.38-17.17,19.03-30.07,41.56-34.11c1.11-0.2,2.13-0.71,3.19-1.07c5.43,0,10.86,0,16.29,0c0.62,0.27,1.2,0.69,1.88,0.8
		c34.44,5.93,51.47,27.81,41.07,53.25c-1.43,3.5,0.99,4.52,3.81,6.02c25.29,13.48,50.54,27,75.81,40.49
		c18.04,9.63,36.1,19.25,54.11,28.85c24.47-11.52,47.71-10.21,69.78,3.13c41.29-19.29,82.21-38.46,123.25-57.48
		c3.77-1.75,3.84-3.59,3.05-6.38c-4.56-16.1,3.92-32.04,21.66-41.17c17.84-9.18,41.71-9.43,59.99-0.83
		c14.3,6.72,21.36,16.89,25.31,28.66C897.22,82.08,897.22,85.77,897.22,89.46z"/>
	<path class="st1" d="M789.14,479.61c-0.06-10.94-0.16-21.87-0.16-32.81c-0.02-47.09-0.01-94.18,0-141.27
		c0-7.38,3.82-9.15,19.65-9.16c23.43,0,46.85,0.11,70.27-0.06c8.6-0.06,14.86,1.14,18.33,4.93c0,59.45,0,118.91,0,178.36
		C861.19,479.61,825.16,479.61,789.14,479.61z"/>
	<path class="st2" d="M355.32,475.57c0.11-1.39,0.32-2.78,0.32-4.17c0.02-48.6,0.01-97.2,0.02-145.81c0-7.39,3.91-9.08,20.99-9.08
		c22.93,0,45.86-0.01,68.79,0c13.78,0.01,18.52,1.96,18.52,7.81c0.04,49.57,0.03,99.14,0,148.7c0,0.85-0.36,1.7-0.55,2.54
		C427.38,475.57,391.35,475.57,355.32,475.57z"/>
	<path class="st3" d="M572.97,501.83c-0.19-1.82-0.55-3.63-0.55-5.45c-0.03-52.47-0.03-104.94-0.02-157.41
		c0-10.67,3.6-12.9,20.75-12.9c22.7,0,45.39-0.01,68.09,0c14.95,0,19.48,2.76,19.48,11.95c0.02,52.93,0.01,105.86,0.02,158.79
		c0,1.67,0.21,3.35,0.32,5.02C645.02,501.83,609,501.83,572.97,501.83z"/>
	<path class="st1" d="M139.16,467.49c0.02-31.17,0.03-62.34,0.05-93.5c0.01-8.92,4.41-11.53,19.42-11.54
		c23.66-0.01,47.31-0.03,70.97,0.01c13.05,0.02,17.81,2.86,17.8,10.65c-0.02,31.46-0.1,62.92-0.16,94.38
		C211.21,467.49,175.18,467.49,139.16,467.49z"/>
	<g>
		<path class="st0" d="M384.04,802.32c1.51-6.2,5.81-8.72,11.51-9.31c5.4-0.56,10.73-1.44,15.82-3.31
			c41.67-15.31,70.49-43.19,84.14-85.98c5.13-16.08,6.42-32.49,5.07-49.23c-1.03-12.69-3.38-25.08-7.82-37.01
			c-12.85-34.56-36.02-59.66-69.43-75.26c-15.84-7.39-32.43-12.47-49.54-15.92c-22.33-4.49-44.91-6.14-67.64-5.64
			c-13.71,0.31-27.41,0.92-41.11,1.45c-10.02,0.39-20.04,0.73-30.05,0.15c-15.61-0.9-30.89-3.44-45.33-9.85
			c-14.77-6.56-27.61-15.85-39.07-27.16c-6.87-6.78-12.9-14.27-18.63-22.02c-0.62-0.85-1.17-1.76-1.67-2.68
			c-0.18-0.32-0.13-0.75-0.19-1.13c1.25-0.63,2.34-0.02,3.47,0.24c6.28,1.46,12.55,3.04,18.87,4.28
			c12.59,2.48,25.34,3.29,38.16,3.22c18-0.09,35.75-2.43,53.34-6.05c17.29-3.56,34.3-8.33,51.42-12.62
			c12.9-3.23,25.78-6.57,38.75-9.51c15.74-3.57,31.74-5.29,47.87-5.02c43.14,0.72,81.22,15.08,114.21,42.91
			c5.75,4.85,11.16,10.07,16.42,15.44c6.26,6.39,11.15,13.69,14.54,21.95c3.2,7.8,6.2,15.68,9.32,23.52
			c0.58,1.45,0.88,3.04,1.98,4.18c1.4,0.04,1.88-0.91,2.41-1.83c1.52-2.62,3.02-5.26,4.58-7.86c10.37-17.23,22.15-33.39,36.25-47.79
			c10.38-10.59,21.76-19.95,34.46-27.66c19.68-11.94,41-19.03,63.87-21.62c13.82-1.57,27.6-1.51,41.44-0.12
			c20.15,2.02,39.74,6.57,59.05,12.5c16.75,5.14,33.61,9.87,50.79,13.41c11.88,2.45,23.84,4.38,35.92,5.51
			c11.17,1.04,22.36,1.56,33.58,1.03c15.31-0.72,30.43-2.84,45.36-6.31c0.89-0.21,1.8-0.37,2.71-0.5c0.24-0.04,0.5,0.1,1.04,0.22
			c-0.14,0.57-0.22,1.16-0.43,1.7c-0.13,0.36-0.43,0.66-0.66,0.98c-10.01,13.72-21.45,26.04-35.3,36
			c-14.25,10.24-29.97,17.02-47.25,20.1c-8.32,1.48-16.74,2.14-25.19,2.08c-27.95-0.18-55.91-0.37-83.86-0.63
			c-7.91-0.07-15.81-0.22-23.72,0.26c-14.81,0.9-29.28,3.61-43.41,8.1c-18.82,5.98-36.54,14.35-52.95,25.34
			c-18.31,12.25-32.9,27.93-42.97,47.65c-6.9,13.51-11.27,27.82-13.27,42.84c-2.58,19.4-0.39,38.38,5.26,57.04
			c4.93,16.31,12.25,31.4,22.85,44.82c15.39,19.48,35.04,32.89,58.41,41c6.11,2.12,12.31,3.85,18.7,4.93
			c2.07,0.35,4.14,0.86,6.11,1.57c2.68,0.96,4.88,2.57,5.87,5.48c-0.21,0.36-0.33,0.78-0.61,0.99c-0.73,0.56-1.49,1.1-2.31,1.51
			c-9.94,5.07-20.39,8.51-31.47,10.05c-6.18,0.86-12.33,0.78-18.53,0.21c-8.61-0.79-17.12-0.01-25.43,2.49
			c-11.43,3.43-20.87,9.92-28.73,18.81c-6.22,7.03-11.63,14.67-16.43,22.73c-5.06,8.49-10,17.06-15.01,25.58
			c-2.67,4.55-5.39,9.07-8.79,13.13c-1.26,1.51-2.6,3.01-4.11,4.25c-3.79,3.12-7.27,3.08-11.05-0.12c-1.6-1.36-3.09-2.9-4.34-4.58
			c-2.28-3.06-4.48-6.2-6.47-9.46c-5.64-9.22-11.14-18.52-16.73-27.78c-3.88-6.44-7.96-12.75-12.77-18.55
			c-3.96-4.78-8.24-9.26-13.11-13.14c-12.03-9.58-25.81-14-41.11-13.87c-2.77,0.02-5.56,0.03-8.29,0.44
			c-6.52,0.98-12.97,0.35-19.21-1.31c-9.67-2.57-19.19-5.69-28.77-8.59C384.63,802.97,384.47,802.71,384.04,802.32z M550.28,856.06
			c1-1.59,1.81-2.77,2.53-4.01c6.84-11.88,13.66-23.77,20.47-35.67c0.78-1.37,1.53-2.77,2.13-4.23c1.44-3.53,1.21-7.02-0.83-10.23
			c-4.17-6.57-10.18-10.17-17.98-10.52c-1.68-0.08-3.41,0.27-5.06,0.65c-4.08,0.93-6.25,3.71-6.92,7.71
			c-0.24,1.42-0.29,2.89-0.29,4.34c-0.02,14.9-0.02,29.8,0,44.7c0,1.56,0.21,3.11,0.32,4.7
			C546.52,854.34,548.17,855.09,550.28,856.06z"/>
		<path class="st0" d="M767.67,617.84c1.63,4.13,2.26,7.75,2.94,11.32c1.89,9.88,2.64,19.85,1.87,29.9
			c-1.51,19.58-9.94,35.28-26.17,46.56c-8.87,6.16-18.54,10.52-29.28,12.27c-10.87,1.77-21.54,0.96-32.01-2.4
			c-13.66-4.38-25.1-12.07-34.23-23.15c-8.56-10.39-13.13-22.41-14.37-35.76c-2.24-24.04,6.5-43.85,23.35-60.52
			c2.55-2.52,5.54-4.5,8.75-6.04c6.53-3.14,13.11-6.16,19.69-9.2c2.05-0.95,4.2-1.5,6.5-1.45c4.19,0.09,6.37,2.12,6.62,6.22
			c0.13,2.14-0.2,4.19-1.04,6.18c-1.19,2.79-2.35,5.59-3.44,8.42c-2.42,6.33-3.92,12.83-3.69,19.68c0.26,7.77,3.14,14.38,8.82,19.65
			c6.52,6.05,14.13,10.1,22.96,11.61c6.32,1.08,12.34,0.05,17.91-3.21c4.61-2.69,8.63-6.09,11.69-10.48
			c3.76-5.41,7.38-10.92,11.06-16.38C766.17,620.18,766.73,619.3,767.67,617.84z"/>
		<path class="st0" d="M371.07,587.86c-0.7,1.61-1.35,3.03-1.94,4.48c-1.81,4.52-3.76,8.99-5.34,13.6c-1.54,4.5-2.23,9.2-2.13,14
			c0.15,7.33,2.65,13.72,7.87,18.84c7.68,7.54,16.94,11.99,27.7,13.04c4.41,0.43,8.65-0.6,12.64-2.52
			c6.35-3.05,11.37-7.64,15.04-13.61c2.83-4.6,5.38-9.37,8.06-14.06c0.64-1.12,1.32-2.21,1.99-3.32c1.43,0.75,1.55,2.05,1.83,3.12
			c1.15,4.32,2.27,8.67,3.2,13.04c1.62,7.65,2.08,15.4,1.73,23.2c-0.6,13.5-5.07,25.43-14.03,35.69
			c-12.22,13.98-27.38,22.52-45.78,25c-10.6,1.43-21.03,0.41-31.09-3.54c-10.95-4.3-20.8-10.29-28.73-19.07
			c-11.98-13.26-17.97-28.99-18.42-46.78c-0.21-8.13,1.48-15.99,4.6-23.51c4.02-9.7,9.5-18.51,16.45-26.39
			c4.05-4.6,8.81-8.29,14.38-10.94c7.3-3.47,14.97-3.88,22.81-2.88c2.21,0.28,4.4,0.84,6.56,1.39
			C369.31,586.85,370.07,587.38,371.07,587.86z"/>
		<path class="st0" d="M835.07,718.25c-0.07-2.08,0.62-3.68,1.11-5.29c2.63-8.71,4.85-17.52,6.34-26.5
			c4.41-26.65,2.23-52.53-9.15-77.31c-6.16-13.41-14.47-25.4-24.39-36.28c-3.55-3.89-7.36-7.55-11.07-11.3
			c-1.19-1.21-2.41-2.38-3.83-3.78c1.42-1.14,2.83-1.17,4.21-1.26c3.29-0.21,6.57-0.45,9.86-0.64c10.66-0.62,21.32-1.23,31.98-1.83
			c5.79-0.33,11.58-0.65,17.37-0.96c1.18-0.06,2.37-0.11,3.55-0.08c4.96,0.14,8.9,2.3,11.74,6.29c1.52,2.14,2.85,4.44,4.07,6.77
			c4.2,8.03,6.64,16.66,7.78,25.59c4.11,32.02-0.66,62.79-13.6,92.3c-4.75,10.83-11.1,20.65-19.74,28.86
			c-0.67,0.64-1.33,1.28-2.02,1.9C845.28,718.32,840.64,719.47,835.07,718.25z"/>
		<path class="st0" d="M289.99,554.46c-2.29,2.29-4.03,4.07-5.81,5.82c-11.39,11.25-21.52,23.51-29.7,37.32
			c-8.97,15.13-14.92,31.36-17.53,48.76c-1.87,12.44-1.94,24.92-0.54,37.44c1.69,15.13,5.38,29.78,10.28,44.15
			c0.41,1.21,0.72,2.45,1.12,3.85c-1.72,0.02-2.3-1.14-3.04-1.93c-6.58-7.02-12.8-14.36-18.48-22.14
			c-9.61-13.16-17.53-27.22-23.04-42.6c-6.18-17.24-8.6-35.01-7.41-53.24c0.95-14.54,4.04-28.67,9.22-42.31
			c0.98-2.57,2.29-5.04,3.7-7.4c3.75-6.29,9.48-9.43,16.71-9.53c3.66-0.05,7.36,0.39,11,0.91c6.01,0.86,12.03,1.45,18.11,1.27
			c9.75-0.29,19.49-0.57,29.24-0.82C285.62,553.96,287.44,553.85,289.99,554.46z"/>
	</g>
	<path class="st3" d="M148.88,1019.8c96.45,0,192.9,0,290.08,0c0,3.53-0.14,6.54,0.03,9.54c0.39,6.72,4.82,9.88,14.25,9.88
		c56.65,0.04,113.3,0.04,169.94,0c9.91-0.01,14.25-3.12,14.6-10.2c0.14-2.85,0.02-5.71,0.02-8.93c97.15,0,193.81,0,291.02,0
		c0,8.19,0.87,16.58-0.28,24.82c-0.91,6.54-9.03,10.89-18.44,11.64c-3.27,0.26-6.59,0.28-9.89,0.28
		c-240.82,0.01-481.64-0.04-722.45,0.13c-13.31,0.01-23.16-2.61-28.89-11.35C148.88,1037.01,148.88,1028.4,148.88,1019.8z
		 M831.15,1046.82c4.56,0,9.14,0.18,13.68-0.04c6.78-0.33,11.34-3.78,11.5-8.33c0.15-4.55-4.23-8.55-10.82-8.8
		c-9.35-0.35-18.78-0.38-28.11,0.05c-6.54,0.3-10.79,4.46-10.26,9.08c0.54,4.76,4.37,7.56,11.09,7.99
		C822.5,1047.04,826.84,1046.82,831.15,1046.82z"/>
	<path class="st1" d="M612.35,1021.56c-49.32,0-98.23,0-148.34,0c0-2.34,0.01-4.58,0-6.83c-0.06-10.11-3.62-12.59-18.17-12.62
		c-10.92-0.02-21.85,0-32.77,0c-71.64,0-143.28,0-214.92,0c-3.03,0-6.06,0-10.04,0c-0.18-2.18-0.47-4.06-0.47-5.94
		c-0.02-93.57-0.03-187.15,0-280.72c0-13.36,7.86-18.84,27-18.84c215.94-0.02,431.88-0.02,647.82,0c18.79,0,26.65,5.45,26.66,18.52
		c0.04,93.93,0.02,187.86,0.01,281.79c0,1.42-0.19,2.83-0.36,5.18c-3.35,0-6.52,0-9.7,0c-81.8,0-163.61,0-245.41,0
		c-18.36,0-20.72,1.65-20.92,14.45C612.71,1018.14,612.49,1019.71,612.35,1021.56z"/>
	<path class="st0" d="M205.85,697.79c-6.14,4.39-12.41,4.55-16.42,12.02c-4,7.44-3.43,16.18-3.41,24.34
		c0.05,22.83,0.11,45.67,0.16,68.5c0.02,7.81,14.13,9.25,14.11,1.48c-0.05-19.32-0.09-38.64-0.14-57.96
		c-0.02-8.23-0.94-17.07,0.41-25.23c1.59-9.58,7.78-9,14.38-13.72C222.26,701.99,212.13,693.3,205.85,697.79z"/>
	<path class="st0" d="M238.66,699.56c-8.8,0-10.26,11.85-1.25,11.85C246.22,711.41,247.67,699.56,238.66,699.56z"/>
	<path class="st0" d="M608.93,1010.24h-141.3c-8.8,0-10.26,11.85-1.25,11.85h141.3C616.49,1022.1,617.94,1010.24,608.93,1010.24z"/>
	<path class="st0" d="M875.34,866.47V995c0,7.81,14.11,9.25,14.11,1.48V867.95C889.45,860.14,875.34,858.7,875.34,866.47z"/>
	<path class="st0" d="M880.46,833.19c-8.8,0-10.26,11.85-1.25,11.85C888.02,845.05,889.47,833.19,880.46,833.19z"/>
</g>
</svg>
